<?xml version="1.0" standalone="no"?>
<svg width="64" height="64" viewBox="0 0 512 384" version="1.1" xmlns="http://www.w3.org/2000/svg">
  <path d="M199 40l-95 88h-104v128h104l95 88v-304zM255 92l-20 16c17 24 27 52 27 84s-10 60 -27 84l20 16c20 -28 33 -63 33 -100s-13 -72 -33 -100zM322 46l-21 16c27 36 43 81 43 130s-16 94 -43 130l21 16c30 -41 48 -91 48 -146s-18 -105 -48 -146zM365 369l20 15 c39 -54 63 -120 63 -192s-24 -138 -63 -192l-20 15c36 49 58 111 58 177s-22 128 -58 177z" transform="matrix(1,0,0,-1,0,384)"/>
</svg>