<?xml version="1.0" standalone="no"?>
<svg version="1.1" xmlns="http://www.w3.org/2000/svg" width="64" height="64">
  <path d="M640 128h384v128h-384v-128z" transform=""/>
  <path d="M870.32 320h-294.32v-124.388c-21.014-2.376-42.364-3.612-64-3.612-223.318 0-416.882 130.042-512 320 95.118 189.958 288.682 320 512 320 223.31 0 416.876-130.042 512-320-37.396-74.686-90.020-140.1-153.68-192zM416 320c53.020 0 96 42.982 96 96 0 53.020-42.98 96-96 96s-96-42.98-96-96 42.98-96 96-96zM764.448 662.296c-75.594 48.218-162.89 73.704-252.448 73.704-89.56 0-176.86-25.486-252.454-73.704-60.156-38.372-111.136-89.772-149.43-150.296 38.292-60.524 89.274-111.924 149.434-150.296 3.918-2.5 7.876-4.922 11.862-7.3-9.962 27.328-15.412 56.822-15.412 87.596 0 141.382 114.616 256 256 256 141.38 0 256-114.618 256-256 0-30.774-5.454-60.268-15.408-87.598 3.976 2.378 7.938 4.802 11.858 7.302 60.162 38.374 111.142 89.774 149.434 150.296-38.292 60.522-89.274 111.922-149.436 150.296z" transform=""/>
</svg>